<svg xmlns="http://www.w3.org/2000/svg" width="178" height="56">
  <g>
    <path d="M 68.346 26.267 C 68.363 27.149 68.213 28.026 67.905 28.852 C 67.651 29.546 67.206 30.153 66.621 30.603 C 66.042 31.026 65.34 31.247 64.623 31.23 C 64.009 31.243 63.4 31.116 62.842 30.86 C 62.338 30.621 61.899 30.262 61.566 29.814 L 61.566 34.804 L 60.485 34.804 L 60.485 21.285 L 61.494 21.285 L 61.548 22.666 C 61.867 22.177 62.304 21.778 62.82 21.506 C 63.373 21.229 63.986 21.091 64.605 21.105 C 65.325 21.086 66.031 21.3 66.62 21.715 C 67.207 22.154 67.653 22.754 67.905 23.443 C 68.216 24.286 68.366 25.18 68.346 26.078 Z M 67.265 26.078 C 67.276 25.373 67.168 24.671 66.945 24.002 C 66.763 23.441 66.427 22.944 65.974 22.566 C 65.514 22.208 64.943 22.023 64.361 22.043 C 63.734 22.014 63.115 22.195 62.603 22.557 C 62.146 22.908 61.789 23.371 61.566 23.902 L 61.566 28.603 C 61.806 29.111 62.18 29.544 62.648 29.854 C 63.168 30.173 63.77 30.332 64.379 30.31 C 64.958 30.33 65.525 30.144 65.98 29.787 C 66.43 29.407 66.765 28.909 66.945 28.347 C 67.167 27.677 67.276 26.974 67.265 26.267 Z M 75.235 22.197 C 74.996 22.158 74.755 22.137 74.513 22.133 C 73.881 22.109 73.262 22.318 72.773 22.72 C 72.298 23.142 71.961 23.699 71.809 24.317 L 71.809 31.05 L 70.727 31.05 L 70.727 21.285 L 71.782 21.285 L 71.809 22.819 C 72.054 22.307 72.432 21.871 72.904 21.556 C 73.396 21.246 73.969 21.089 74.55 21.105 C 74.682 21.105 74.815 21.116 74.946 21.136 C 75.057 21.151 75.165 21.176 75.271 21.213 Z M 76.118 26.022 C 76.103 25.147 76.288 24.28 76.659 23.487 C 76.994 22.77 77.523 22.164 78.187 21.736 C 78.869 21.308 79.66 21.089 80.464 21.104 C 81.272 21.088 82.068 21.308 82.754 21.736 C 83.42 22.162 83.951 22.77 84.286 23.487 C 84.657 24.28 84.842 25.147 84.827 26.022 L 84.827 26.311 C 84.842 27.187 84.657 28.054 84.286 28.847 C 83.952 29.562 83.424 30.169 82.762 30.598 C 82.08 31.027 81.287 31.247 80.482 31.23 C 79.674 31.246 78.878 31.026 78.192 30.598 C 77.526 30.172 76.995 29.565 76.66 28.848 C 76.289 28.055 76.104 27.187 76.119 26.312 Z M 77.201 26.312 C 77.193 26.998 77.323 27.68 77.584 28.315 C 77.818 28.895 78.208 29.398 78.711 29.768 C 79.227 30.136 79.848 30.326 80.482 30.31 C 81.111 30.326 81.728 30.136 82.24 29.769 C 82.741 29.397 83.13 28.895 83.363 28.316 C 83.623 27.681 83.754 26.999 83.746 26.312 L 83.746 26.022 C 83.752 25.341 83.621 24.666 83.358 24.037 C 83.12 23.456 82.729 22.951 82.226 22.575 C 81.715 22.203 81.096 22.01 80.464 22.025 C 79.833 22.009 79.215 22.203 78.706 22.575 C 78.206 22.951 77.818 23.457 77.583 24.037 C 77.324 24.666 77.194 25.342 77.201 26.022 Z M 87.695 17.73 C 87.896 17.721 88.092 17.796 88.236 17.937 C 88.374 18.076 88.449 18.265 88.443 18.461 C 88.449 18.652 88.373 18.837 88.236 18.971 C 88.091 19.109 87.895 19.182 87.695 19.174 C 87.496 19.183 87.302 19.109 87.159 18.971 C 87.023 18.836 86.95 18.651 86.955 18.461 C 86.949 18.266 87.023 18.077 87.159 17.937 C 87.301 17.796 87.495 17.721 87.695 17.73 Z M 88.227 32.214 C 88.227 33.11 88.008 33.798 87.569 34.276 C 87.13 34.754 86.496 34.993 85.667 34.993 C 85.502 34.993 85.338 34.977 85.176 34.948 C 85.017 34.922 84.861 34.879 84.711 34.822 L 84.72 33.928 C 84.983 34.009 85.257 34.051 85.532 34.055 C 85.98 34.085 86.419 33.914 86.731 33.59 C 87.007 33.28 87.146 32.821 87.146 32.214 L 87.146 21.285 L 88.227 21.285 Z M 91.761 26.231 L 91.761 26.438 C 91.753 27.116 91.898 27.787 92.185 28.401 C 92.445 28.967 92.853 29.452 93.367 29.804 C 93.878 30.149 94.482 30.329 95.098 30.319 C 95.629 30.33 96.156 30.22 96.64 29.998 C 97.112 29.761 97.521 29.413 97.83 28.983 L 98.514 29.497 C 98.159 30.021 97.684 30.452 97.129 30.756 C 96.489 31.089 95.773 31.252 95.052 31.23 C 94.259 31.242 93.479 31.029 92.802 30.616 C 92.135 30.204 91.595 29.613 91.243 28.911 C 90.858 28.144 90.665 27.296 90.679 26.438 L 90.679 26.05 C 90.661 25.153 90.858 24.265 91.251 23.46 C 91.595 22.751 92.125 22.149 92.784 21.718 C 93.402 21.316 94.125 21.102 94.862 21.105 C 95.597 21.085 96.322 21.283 96.945 21.673 C 97.532 22.057 97.993 22.607 98.27 23.252 C 98.582 23.985 98.736 24.775 98.721 25.572 L 98.721 26.23 Z M 94.863 22.025 C 94.346 22.019 93.838 22.16 93.398 22.432 C 92.949 22.717 92.581 23.113 92.33 23.583 C 92.041 24.118 91.863 24.706 91.807 25.311 L 97.64 25.311 L 97.64 25.194 C 97.634 24.653 97.519 24.118 97.302 23.623 C 97.101 23.156 96.775 22.755 96.36 22.463 C 95.92 22.163 95.395 22.01 94.863 22.025 Z M 103.14 26.131 L 101.905 27.314 L 101.905 31.05 L 100.832 31.05 L 100.832 17.188 L 101.905 17.188 L 101.905 26.05 L 102.924 24.949 L 106.665 21.285 L 108.027 21.285 L 103.888 25.4 L 108.386 31.05 L 107.088 31.05 Z M 113.751 31.086 C 113.585 31.137 113.414 31.172 113.242 31.19 C 113.028 31.217 112.813 31.231 112.597 31.231 C 111.924 31.231 111.401 31.035 111.028 30.644 C 110.654 30.253 110.468 29.595 110.469 28.668 L 110.469 22.17 L 108.683 22.17 L 108.683 21.285 L 110.469 21.285 L 110.469 18.776 L 111.559 18.776 L 111.559 21.285 L 113.57 21.285 L 113.57 22.17 L 111.56 22.17 L 111.56 28.667 C 111.56 29.293 111.673 29.718 111.898 29.944 C 112.147 30.178 112.481 30.301 112.822 30.282 C 113.118 30.274 113.414 30.241 113.705 30.183 Z M 127.672 28.027 C 127.647 28.618 127.453 29.19 127.113 29.674 C 126.767 30.167 126.3 30.562 125.756 30.82 C 125.187 31.095 124.562 31.235 123.93 31.23 C 123.126 31.254 122.334 31.032 121.659 30.594 C 121.029 30.164 120.537 29.561 120.243 28.857 C 119.914 28.065 119.751 27.214 119.766 26.357 L 119.766 25.978 C 119.752 25.122 119.914 24.273 120.243 23.483 C 120.536 22.777 121.028 22.172 121.659 21.741 C 122.328 21.304 123.114 21.082 123.913 21.105 C 124.566 21.095 125.212 21.24 125.797 21.529 C 126.346 21.802 126.808 22.222 127.132 22.743 C 127.47 23.294 127.656 23.924 127.673 24.57 L 126.645 24.57 C 126.627 24.093 126.486 23.628 126.235 23.221 C 125.996 22.844 125.66 22.538 125.261 22.337 C 124.843 22.126 124.381 22.02 123.913 22.025 C 123.288 22.001 122.672 22.19 122.169 22.562 C 121.701 22.931 121.35 23.428 121.159 23.993 C 120.938 24.631 120.83 25.303 120.839 25.978 L 120.839 26.357 C 120.829 27.033 120.936 27.707 121.154 28.347 C 121.344 28.911 121.695 29.406 122.163 29.773 C 122.674 30.146 123.297 30.336 123.93 30.31 C 124.375 30.314 124.816 30.223 125.224 30.044 C 125.614 29.874 125.953 29.605 126.206 29.263 C 126.468 28.902 126.62 28.472 126.644 28.026 Z M 129.971 31.05 L 129.971 17.188 L 131.044 17.188 L 131.044 31.05 Z M 133.397 26.022 C 133.382 25.147 133.567 24.28 133.938 23.487 C 134.272 22.77 134.802 22.164 135.466 21.736 C 136.147 21.308 136.939 21.089 137.743 21.104 C 138.551 21.088 139.346 21.308 140.032 21.736 C 140.698 22.162 141.23 22.77 141.565 23.487 C 141.936 24.28 142.121 25.147 142.106 26.022 L 142.106 26.311 C 142.121 27.187 141.936 28.054 141.565 28.847 C 141.231 29.562 140.703 30.169 140.041 30.598 C 139.359 31.027 138.566 31.247 137.761 31.23 C 136.952 31.246 136.157 31.026 135.471 30.598 C 134.805 30.172 134.273 29.565 133.938 28.848 C 133.567 28.055 133.382 27.187 133.397 26.312 Z M 134.479 26.311 C 134.471 26.998 134.601 27.679 134.862 28.315 C 135.095 28.894 135.485 29.397 135.988 29.768 C 136.505 30.136 137.127 30.326 137.761 30.31 C 138.39 30.326 139.007 30.136 139.519 29.769 C 140.02 29.397 140.408 28.895 140.641 28.316 C 140.902 27.681 141.032 26.999 141.024 26.312 L 141.024 26.022 C 141.031 25.341 140.899 24.666 140.636 24.037 C 140.399 23.456 140.008 22.951 139.505 22.575 C 138.994 22.203 138.374 22.01 137.742 22.025 C 137.112 22.009 136.494 22.203 135.984 22.575 C 135.484 22.951 135.096 23.457 134.862 24.037 C 134.602 24.666 134.472 25.342 134.479 26.022 Z M 151.672 21.284 L 151.672 31.05 L 150.635 31.05 L 150.608 29.813 C 149.965 30.758 148.931 31.23 147.507 31.23 C 146.497 31.23 145.71 30.934 145.145 30.341 C 144.579 29.748 144.297 28.811 144.297 27.53 L 144.297 21.285 L 145.379 21.285 L 145.379 27.548 C 145.379 28.523 145.585 29.224 145.997 29.651 C 146.427 30.086 147.022 30.319 147.633 30.292 C 148.451 30.292 149.101 30.119 149.585 29.773 C 150.068 29.428 150.422 28.93 150.59 28.36 L 150.59 21.285 Z M 161.905 17.188 L 161.905 31.05 L 160.896 31.05 L 160.841 29.741 C 160.521 30.208 160.088 30.586 159.584 30.842 C 159.026 31.112 158.413 31.245 157.794 31.23 C 157.085 31.244 156.391 31.023 155.82 30.603 C 155.229 30.151 154.776 29.543 154.512 28.847 C 154.193 28.025 154.037 27.148 154.053 26.266 L 154.053 26.078 C 154.034 25.18 154.188 24.287 154.508 23.447 C 154.768 22.756 155.222 22.154 155.815 21.715 C 156.399 21.303 157.099 21.09 157.812 21.105 C 158.424 21.09 159.03 21.228 159.575 21.506 C 160.08 21.777 160.509 22.169 160.824 22.648 L 160.824 17.188 Z M 158.001 30.292 C 158.615 30.314 159.22 30.148 159.737 29.818 C 160.209 29.496 160.584 29.051 160.824 28.532 L 160.824 23.93 C 160.601 23.394 160.244 22.925 159.787 22.567 C 159.273 22.199 158.651 22.015 158.02 22.044 C 157.44 22.025 156.872 22.21 156.415 22.566 C 155.964 22.942 155.629 23.438 155.45 23.997 C 155.229 24.668 155.122 25.371 155.134 26.078 L 155.134 26.267 C 155.123 26.972 155.23 27.673 155.45 28.343 C 155.627 28.901 155.958 29.397 156.406 29.773 C 156.86 30.128 157.425 30.312 158.001 30.292 Z M 63.73 47.571 C 63.082 47.446 62.449 47.252 61.842 46.993 C 61.4 46.808 61.014 46.513 60.719 46.136 C 60.45 45.754 60.314 45.294 60.331 44.827 C 60.329 44.348 60.477 43.881 60.755 43.491 C 61.062 43.068 61.478 42.736 61.959 42.53 C 62.529 42.283 63.145 42.161 63.766 42.174 C 64.428 42.158 65.084 42.286 65.691 42.548 C 66.199 42.767 66.632 43.127 66.94 43.586 C 67.23 44.033 67.381 44.556 67.373 45.089 L 66.282 45.089 C 66.281 44.742 66.177 44.403 65.984 44.114 C 65.768 43.792 65.467 43.536 65.114 43.375 C 64.692 43.18 64.231 43.084 63.766 43.095 C 63.311 43.08 62.858 43.163 62.437 43.339 C 62.122 43.471 61.852 43.69 61.657 43.97 C 61.339 44.457 61.32 45.081 61.607 45.586 C 61.804 45.852 62.071 46.058 62.378 46.181 C 62.903 46.409 63.45 46.581 64.01 46.696 C 64.684 46.837 65.339 47.057 65.962 47.35 C 66.403 47.553 66.783 47.867 67.066 48.261 C 67.316 48.652 67.442 49.11 67.427 49.574 C 67.434 50.082 67.277 50.578 66.981 50.99 C 66.659 51.425 66.222 51.759 65.719 51.956 C 65.118 52.195 64.476 52.312 63.83 52.299 C 63.123 52.316 62.422 52.179 61.774 51.897 C 61.244 51.668 60.788 51.296 60.458 50.823 C 60.164 50.397 60.007 49.893 60.007 49.375 L 61.08 49.375 C 61.128 50.079 61.418 50.589 61.95 50.905 C 62.522 51.231 63.172 51.396 63.83 51.38 C 64.295 51.391 64.758 51.308 65.191 51.136 C 65.53 51.003 65.828 50.782 66.052 50.495 C 66.242 50.246 66.345 49.942 66.345 49.629 C 66.343 49.161 66.139 48.717 65.786 48.411 C 65.413 48.061 64.728 47.781 63.73 47.571 Z M 76.957 42.354 L 72.827 53.69 C 72.685 54.08 72.509 54.458 72.3 54.817 C 72.088 55.166 71.802 55.463 71.462 55.688 C 71.055 55.95 70.578 56.081 70.095 56.062 C 69.949 56.06 69.803 56.047 69.658 56.026 C 69.525 56.011 69.394 55.984 69.266 55.944 L 69.266 55.043 C 69.353 55.065 69.442 55.081 69.532 55.088 C 69.649 55.1 69.744 55.106 69.816 55.106 C 70.297 55.134 70.771 54.981 71.145 54.678 C 71.52 54.305 71.794 53.844 71.943 53.338 L 72.421 52.038 L 68.743 42.354 L 69.915 42.354 L 72.954 50.558 L 75.794 42.354 Z M 81.87 47.571 C 81.222 47.446 80.589 47.252 79.982 46.993 C 79.54 46.808 79.154 46.513 78.859 46.136 C 78.59 45.754 78.454 45.294 78.471 44.827 C 78.469 44.348 78.617 43.881 78.895 43.491 C 79.202 43.068 79.618 42.736 80.099 42.53 C 80.669 42.283 81.285 42.161 81.907 42.174 C 82.568 42.158 83.224 42.286 83.832 42.548 C 84.339 42.767 84.772 43.127 85.08 43.586 C 85.37 44.033 85.521 44.556 85.513 45.089 L 84.422 45.089 C 84.421 44.742 84.318 44.403 84.125 44.114 C 83.908 43.792 83.607 43.536 83.255 43.375 C 82.833 43.18 82.372 43.084 81.907 43.095 C 81.451 43.08 80.998 43.163 80.577 43.339 C 80.263 43.471 79.992 43.69 79.797 43.97 C 79.479 44.457 79.46 45.081 79.748 45.586 C 79.945 45.852 80.211 46.058 80.519 46.181 C 81.043 46.409 81.59 46.581 82.151 46.696 C 82.824 46.837 83.479 47.057 84.102 47.35 C 84.543 47.553 84.923 47.867 85.207 48.261 C 85.457 48.652 85.582 49.11 85.567 49.574 C 85.574 50.082 85.418 50.578 85.121 50.99 C 84.799 51.425 84.362 51.759 83.859 51.956 C 82.583 52.433 81.175 52.412 79.914 51.898 C 79.385 51.669 78.929 51.297 78.598 50.824 C 78.305 50.398 78.147 49.893 78.147 49.375 L 79.22 49.375 C 79.268 50.079 79.558 50.589 80.09 50.905 C 80.662 51.231 81.312 51.395 81.97 51.38 C 82.435 51.391 82.898 51.308 83.331 51.136 C 83.67 51.003 83.968 50.782 84.192 50.495 C 84.382 50.246 84.485 49.942 84.485 49.629 C 84.483 49.161 84.28 48.717 83.926 48.411 C 83.554 48.061 82.868 47.781 81.871 47.571 Z M 91.869 52.154 C 91.703 52.205 91.532 52.239 91.36 52.258 C 91.146 52.285 90.931 52.299 90.715 52.299 C 90.042 52.299 89.519 52.103 89.146 51.712 C 88.772 51.321 88.586 50.662 88.587 49.736 L 88.587 43.239 L 86.803 43.239 L 86.803 42.354 L 88.588 42.354 L 88.588 39.846 L 89.679 39.846 L 89.679 42.354 L 91.689 42.354 L 91.689 43.239 L 89.678 43.239 L 89.678 49.736 C 89.678 50.362 89.791 50.788 90.016 51.013 C 90.265 51.248 90.599 51.37 90.94 51.352 C 91.236 51.343 91.532 51.31 91.823 51.252 Z M 94.421 47.299 L 94.421 47.506 C 94.412 48.184 94.557 48.855 94.844 49.469 C 95.104 50.035 95.513 50.52 96.026 50.873 C 96.537 51.217 97.141 51.397 97.757 51.387 C 98.289 51.398 98.816 51.288 99.299 51.067 C 99.772 50.829 100.18 50.481 100.489 50.051 L 101.174 50.566 C 100.819 51.09 100.344 51.521 99.789 51.825 C 98.767 52.376 97.565 52.49 96.457 52.143 C 95.349 51.796 94.428 51.016 93.902 49.979 C 93.518 49.213 93.325 48.365 93.339 47.507 L 93.339 47.119 C 93.322 46.223 93.518 45.335 93.912 44.529 C 94.255 43.82 94.785 43.218 95.444 42.788 C 96.062 42.385 96.785 42.172 97.522 42.174 C 98.257 42.154 98.982 42.352 99.605 42.742 C 100.193 43.127 100.654 43.676 100.93 44.322 C 101.243 45.054 101.396 45.845 101.381 46.641 L 101.381 47.3 Z M 97.523 43.094 C 97.006 43.087 96.497 43.228 96.057 43.5 C 95.608 43.785 95.24 44.182 94.989 44.651 C 94.701 45.186 94.523 45.774 94.466 46.379 L 100.299 46.379 L 100.299 46.262 C 100.293 45.721 100.178 45.187 99.961 44.691 C 99.76 44.225 99.435 43.823 99.02 43.531 C 98.579 43.232 98.055 43.079 97.522 43.094 Z M 113.923 42.173 C 114.969 42.173 115.762 42.462 116.303 43.04 C 116.843 43.617 117.114 44.523 117.114 45.756 L 117.114 52.119 L 116.041 52.119 L 116.041 45.748 C 116.041 44.779 115.838 44.096 115.432 43.699 C 115.026 43.302 114.447 43.103 113.696 43.103 C 112.684 43.075 111.734 43.591 111.208 44.457 C 110.982 44.821 110.843 45.231 110.802 45.657 L 110.802 52.119 L 109.72 52.119 L 109.72 45.657 C 109.72 44.737 109.514 44.081 109.102 43.69 C 108.69 43.299 108.106 43.103 107.348 43.103 C 106.675 43.073 106.017 43.306 105.513 43.753 C 105.038 44.204 104.691 44.774 104.51 45.405 L 104.51 52.119 L 103.429 52.119 L 103.429 42.354 L 104.473 42.354 L 104.5 43.934 C 105.157 42.815 106.369 42.141 107.665 42.174 C 108.315 42.151 108.958 42.311 109.522 42.634 C 110.039 42.964 110.417 43.471 110.586 44.06 C 110.907 43.492 111.372 43.019 111.934 42.688 C 112.537 42.338 113.225 42.16 113.922 42.174 Z M 123.092 47.57 C 122.443 47.445 121.81 47.252 121.202 46.993 C 120.761 46.808 120.375 46.513 120.08 46.136 C 119.811 45.754 119.675 45.294 119.692 44.827 C 119.69 44.348 119.838 43.881 120.116 43.491 C 120.423 43.068 120.839 42.736 121.32 42.53 C 121.89 42.283 122.506 42.161 123.127 42.174 C 123.789 42.158 124.445 42.286 125.052 42.548 C 125.56 42.767 125.993 43.127 126.301 43.586 C 126.591 44.033 126.742 44.556 126.734 45.089 L 125.643 45.089 C 125.642 44.742 125.538 44.403 125.346 44.114 C 125.129 43.792 124.828 43.536 124.476 43.375 C 124.054 43.18 123.592 43.084 123.128 43.095 C 122.672 43.08 122.219 43.163 121.798 43.339 C 121.483 43.471 121.213 43.69 121.018 43.97 C 120.7 44.457 120.681 45.081 120.969 45.586 C 121.165 45.852 121.432 46.058 121.739 46.181 C 122.264 46.409 122.811 46.581 123.371 46.696 C 124.045 46.837 124.7 47.057 125.323 47.35 C 125.764 47.553 126.144 47.867 126.428 48.261 C 126.677 48.652 126.803 49.11 126.788 49.574 C 126.795 50.082 126.639 50.578 126.342 50.99 C 126.02 51.425 125.583 51.759 125.08 51.956 C 123.804 52.433 122.396 52.412 121.135 51.898 C 120.605 51.669 120.15 51.297 119.819 50.824 C 119.525 50.398 119.368 49.893 119.368 49.375 L 120.441 49.375 C 120.489 50.079 120.779 50.589 121.311 50.905 C 121.883 51.231 122.533 51.395 123.191 51.38 C 123.656 51.391 124.119 51.308 124.552 51.136 C 124.891 51.003 125.189 50.782 125.413 50.495 C 125.603 50.246 125.706 49.942 125.706 49.629 C 125.704 49.161 125.501 48.717 125.147 48.411 C 124.775 48.061 124.089 47.781 123.092 47.571 Z M 141.142 42.354 L 141.142 51.946 C 141.161 52.699 140.995 53.446 140.66 54.121 C 140.355 54.716 139.879 55.207 139.293 55.529 C 138.658 55.865 137.947 56.033 137.228 56.016 C 136.572 56.013 135.924 55.865 135.331 55.583 C 134.729 55.311 134.211 54.885 133.829 54.346 L 134.433 53.688 C 134.77 54.129 135.197 54.492 135.687 54.753 C 136.145 54.983 136.652 55.101 137.165 55.095 C 138.085 55.095 138.797 54.822 139.302 54.274 C 139.807 53.727 140.059 52.963 140.059 51.983 L 140.059 50.846 C 139.732 51.301 139.299 51.67 138.797 51.92 C 138.245 52.183 137.64 52.312 137.03 52.299 C 136.318 52.313 135.621 52.093 135.046 51.671 C 134.456 51.22 134.005 50.612 133.743 49.916 C 133.427 49.093 133.272 48.216 133.288 47.335 L 133.288 47.147 C 133.269 46.249 133.423 45.356 133.74 44.516 C 133.997 43.825 134.448 43.223 135.038 42.783 C 135.626 42.37 136.331 42.156 137.049 42.173 C 137.669 42.158 138.283 42.299 138.834 42.584 C 139.345 42.863 139.776 43.269 140.087 43.762 L 140.132 42.354 Z M 137.238 51.361 C 137.857 51.385 138.468 51.216 138.987 50.878 C 139.459 50.545 139.83 50.087 140.06 49.556 L 140.06 45.044 C 139.849 44.496 139.496 44.015 139.036 43.65 C 138.522 43.272 137.893 43.083 137.256 43.113 C 136.676 43.094 136.108 43.279 135.651 43.636 C 135.2 44.011 134.865 44.507 134.686 45.066 C 134.465 45.737 134.359 46.441 134.371 47.147 L 134.371 47.337 C 134.359 48.041 134.466 48.743 134.686 49.412 C 134.863 49.97 135.194 50.466 135.642 50.842 C 136.096 51.198 136.661 51.381 137.238 51.361 Z M 154.404 42.174 C 155.45 42.174 156.244 42.463 156.784 43.041 C 157.325 43.618 157.595 44.524 157.596 45.758 L 157.596 52.119 L 156.523 52.119 L 156.523 45.748 C 156.523 44.779 156.32 44.096 155.914 43.699 C 155.507 43.302 154.929 43.103 154.178 43.103 C 153.166 43.075 152.216 43.591 151.689 44.457 C 151.464 44.821 151.325 45.231 151.283 45.657 L 151.283 52.119 L 150.201 52.119 L 150.201 45.657 C 150.201 44.737 149.995 44.081 149.584 43.69 C 149.172 43.299 148.587 43.103 147.83 43.103 C 147.157 43.073 146.499 43.306 145.995 43.753 C 145.518 44.204 145.171 44.774 144.989 45.405 L 144.989 52.119 L 143.908 52.119 L 143.908 42.354 L 144.953 42.354 L 144.98 43.934 C 145.637 42.815 146.849 42.141 148.145 42.174 C 148.795 42.151 149.438 42.311 150.002 42.634 C 150.519 42.964 150.897 43.471 151.066 44.06 C 151.387 43.492 151.852 43.019 152.414 42.688 C 153.018 42.337 153.706 42.159 154.404 42.174 Z M 164.457 42.174 C 165.177 42.156 165.883 42.369 166.472 42.784 C 167.059 43.223 167.505 43.824 167.757 44.512 C 168.068 45.355 168.218 46.249 168.199 47.147 L 168.199 47.337 C 168.215 48.219 168.065 49.096 167.757 49.922 C 167.503 50.616 167.057 51.223 166.472 51.673 C 165.893 52.096 165.191 52.317 164.475 52.3 C 163.846 52.316 163.223 52.179 162.658 51.903 C 162.147 51.641 161.711 51.253 161.392 50.776 L 161.337 52.119 L 160.328 52.119 L 160.328 38.257 L 161.409 38.257 L 161.409 43.762 C 161.721 43.268 162.154 42.863 162.667 42.585 C 163.22 42.3 163.835 42.159 164.457 42.174 Z M 167.108 47.147 C 167.108 45.938 166.872 44.963 166.4 44.223 C 165.928 43.483 165.211 43.113 164.25 43.113 C 163.504 43.113 162.903 43.297 162.446 43.667 C 161.981 44.048 161.624 44.544 161.409 45.106 L 161.409 49.52 C 161.641 50.056 162.016 50.518 162.491 50.856 C 163.015 51.207 163.637 51.384 164.267 51.361 C 164.841 51.38 165.403 51.196 165.854 50.842 C 166.3 50.468 166.629 49.972 166.801 49.416 C 167.016 48.744 167.119 48.041 167.107 47.336 Z M 174.826 42.176 C 175.835 42.176 176.606 42.461 177.138 43.033 C 177.671 43.605 177.937 44.513 177.936 45.758 L 177.936 52.119 L 176.854 52.119 L 176.854 45.757 C 176.854 44.794 176.659 44.111 176.268 43.708 C 175.878 43.305 175.307 43.104 174.555 43.104 C 173.892 43.089 173.248 43.326 172.752 43.767 C 172.251 44.213 171.872 44.78 171.652 45.414 L 171.652 52.119 L 170.57 52.119 L 170.57 38.257 L 171.652 38.257 L 171.652 43.988 C 171.983 43.44 172.444 42.983 172.995 42.657 C 173.55 42.333 174.183 42.166 174.825 42.174 Z" fill="rgb(85,85,85)"></path>
    <path d="M 0 0 L 53.548 0 L 53.548 53.597 L 0 53.597 Z" fill="rgb(152,152,152)"></path>
    <path d="M 19.38 40.17 L 10.481 40.17 C 10.526 40.821 10.711 41.455 11.023 42.028 C 11.312 42.552 11.738 42.989 12.254 43.291 C 12.806 43.603 13.432 43.76 14.066 43.746 C 15.406 43.782 16.679 43.159 17.474 42.078 L 19.152 43.708 C 18.618 44.475 17.908 45.102 17.083 45.539 C 16.199 46.028 15.13 46.272 13.877 46.272 C 12.659 46.301 11.456 46.002 10.393 45.407 C 9.421 44.852 8.628 44.03 8.108 43.038 C 7.569 41.997 7.295 40.838 7.313 39.665 L 7.313 39.147 C 7.285 37.865 7.562 36.594 8.121 35.439 C 8.615 34.423 9.385 33.567 10.342 32.969 C 11.299 32.384 12.402 32.081 13.523 32.097 C 14.811 32.097 15.892 32.379 16.767 32.944 C 17.648 33.514 18.333 34.341 18.73 35.312 C 19.184 36.433 19.405 37.635 19.38 38.843 Z M 16.275 37.657 C 16.267 36.873 16.015 36.111 15.555 35.477 C 15.118 34.908 14.436 34.624 13.511 34.624 C 12.751 34.596 12.019 34.911 11.516 35.483 C 11.012 36.056 10.688 36.86 10.544 37.896 L 16.275 37.896 Z M 21.147 37.592 L 21.147 35.987 L 24.77 32.665 C 25.171 32.323 25.524 31.928 25.817 31.49 C 26.013 31.219 26.13 30.9 26.158 30.567 C 26.172 30.248 26.048 29.937 25.817 29.715 C 25.548 29.485 25.199 29.369 24.845 29.393 C 24.341 29.393 23.958 29.532 23.697 29.81 C 23.43 30.102 23.29 30.488 23.305 30.884 L 20.921 30.884 C 20.915 30.281 21.077 29.688 21.388 29.172 C 21.709 28.644 22.173 28.217 22.725 27.94 C 23.356 27.625 24.053 27.469 24.758 27.485 C 25.953 27.485 26.885 27.757 27.554 28.3 C 28.223 28.843 28.557 29.595 28.557 30.555 C 28.562 30.997 28.462 31.433 28.267 31.83 C 28.05 32.25 27.769 32.633 27.434 32.967 C 26.96 33.438 26.463 33.885 25.944 34.306 L 24.227 35.683 L 28.885 35.683 L 28.885 37.592 Z" fill="rgb(255,255,255)"></path>
  </g>
</svg>